<?xml version="1.0" encoding="utf-8"?>
<!-- Generator: Adobe Illustrator 24.0.1, SVG Export Plug-In . SVG Version: 6.00 Build 0)  -->
<svg version="1.1" xmlns="http://www.w3.org/2000/svg" xmlns:xlink="http://www.w3.org/1999/xlink" x="0px" y="0px"
	 viewBox="0 0 208.5 208.4" style="enable-background:new 0 0 208.5 208.4;" xml:space="preserve">
<style type="text/css">
	.st0{display:none;}
	.st1{display:inline;}
	.st2{fill:#F9F1E1;}
	.st3{fill:#EAF4FE;}
	.st4{fill:none;stroke:#0561FC;stroke-width:6.8376;stroke-miterlimit:10;}
	.st5{fill:#0561FC;}
	.st6{fill:#C5E1F9;}
	.st7{fill:#7EB3FF;}
	.st8{fill:#B5D5EA;}
	.st9{fill:#E1EBF4;}
	.st10{fill:#9AC7F7;}
	.st11{fill:none;stroke:#0561FC;stroke-width:6.8376;}
	.st12{fill:none;stroke:#7EB3FF;stroke-width:6.8376;}
	.st13{fill:none;stroke:#0561FC;stroke-width:6.8376;stroke-linecap:round;}
	.st14{fill:none;stroke:#0561FC;stroke-width:7.1001;}
	.st15{fill:#B6D9EF;}
	.st16{fill:none;stroke:#9AC7F7;stroke-width:6.8376;}
	.st17{fill:none;stroke:#0561FC;stroke-width:6.8376;stroke-linejoin:bevel;}
	.st18{fill:none;stroke:#0561FC;stroke-width:6.8376;stroke-linecap:round;stroke-linejoin:round;}
	.st19{fill:none;stroke:#0561FC;stroke-width:5.0237;}
	.st20{fill:none;stroke:#0450CF;stroke-width:6.8376;}
	.st21{fill:none;stroke:#C5E1F9;stroke-width:6.8376;}
	.st22{fill:#FFBF0D;}
	.st23{fill:#B2D2EA;}
	.st24{fill:none;stroke:#0561FC;stroke-width:6.9311;}
	.st25{fill:none;stroke:#0561FC;stroke-width:6.8376;stroke-linecap:round;stroke-miterlimit:10;}
	.st26{fill:#FFFFFF;}
	.st27{fill:#FFFFFF;stroke:#0561FC;stroke-width:6.8376;}
</style>
<g id="Layer_2">
	<g class="st0">
		<g class="st1">
			<rect x="-0.4" y="-7.8" class="st2" width="218.8" height="218.8"/>
		</g>
	</g>
</g>
<g id="Layer_3">
</g>
<g id="Layer_4">
	<g>
		<g>
			<path class="st11" d="M167.9,182.4c39.6-32.2,49.3-89.8,20.7-133.4C160,5.4,103.3-8.8,58,14.7"/>
			<path class="st11" d="M40.6,26.1C1,58.2-8.7,115.8,19.9,159.5c28.6,43.6,85.2,57.8,130.6,34.3"/>
		</g>
		<polyline class="st11" points="40.1,58.4 40.1,26.3 8,26.3 		"/>
		<polyline class="st11" points="163.8,154.6 163.8,186.7 195.9,186.7 		"/>
		
			<ellipse transform="matrix(0.1771 -0.9842 0.9842 0.1771 -12.6617 188.7288)" class="st10" cx="106.5" cy="101.9" rx="66.4" ry="66.4"/>
		
			<ellipse transform="matrix(0.1775 -0.9841 0.9841 0.1775 -12.697 188.6803)" class="st6" cx="106.5" cy="101.9" rx="46.6" ry="46.6"/>
		<g>
			<line class="st11" x1="104.8" y1="76.5" x2="104.8" y2="86.8"/>
			<line class="st11" x1="104.8" y1="120.9" x2="104.8" y2="131.2"/>
			<path class="st11" d="M106.5,103.9h-3.4c-4.7,0-8.5-3.8-8.5-8.5l0,0c0-4.7,3.8-8.5,8.5-8.5h3.4c4.7,0,8.5,3.8,8.5,8.5l0,0"/>
			<path class="st11" d="M103.1,103.9h3.4c4.7,0,8.5,3.8,8.5,8.5l0,0c0,4.7-3.8,8.5-8.5,8.5h-3.4c-4.7,0-8.5-3.8-8.5-8.5l0,0"/>
		</g>
	</g>
</g>
</svg>
