<svg xmlns="http://www.w3.org/2000/svg" width="128" height="128" viewBox="0 0 128 128">
  <title>MONEY BAG</title>
  <g>
    <path d="M65.361,78.67V73.337a9.269,9.269,0,0,1,4.029,2.127l1.928-2.61a10.547,10.547,0,0,0-5.957-2.637V68.458H62.78v1.73c-3.489.426-5.843,2.78-5.843,5.844,0,3.347,2.354,4.595,5.843,5.5v5.532a9.7,9.7,0,0,1-4.566-2.44l-2.043,2.525a11.629,11.629,0,0,0,6.609,3.035v1.9h2.581V90.271c4.114-.283,6.468-2.666,6.468-5.928C71.829,80.882,69.248,79.549,65.361,78.67Zm-2.581-.681c-1.531-.539-2.269-1.135-2.269-2.269a2.678,2.678,0,0,1,2.269-2.44Zm2.581,9.247V82.187c2.015.6,2.922,1.191,2.922,2.5C68.283,85.931,67.291,87.009,65.361,87.236Z"/>
    <path d="M64,54.323a25.949,25.949,0,1,0,25.949,25.95A25.979,25.979,0,0,0,64,54.323Zm0,48.4A22.449,22.449,0,1,1,86.449,80.273,22.474,22.474,0,0,1,64,102.721Z"/>
    <path d="M64,61.922A18.351,18.351,0,1,0,82.351,80.273,18.371,18.371,0,0,0,64,61.922Zm0,33.2a14.851,14.851,0,1,1,14.851-14.85A14.867,14.867,0,0,1,64,95.123Z"/>
    <path d="M108.205,85.676C106.827,56.489,84.061,40.861,79.218,37.86V31.625l8.336-18.708a1.751,1.751,0,0,0-.519-2.089C86.709,10.572,78.871,4.557,64,4.557s-22.709,6.015-23.035,6.271a1.75,1.75,0,0,0-.519,2.089l8.337,18.708V37.86c-4.843,3-27.609,18.629-28.988,47.816a34.638,34.638,0,0,0,23.661,34.713A66.9,66.9,0,0,0,64,123.443a66.914,66.914,0,0,0,20.545-3.054A34.638,34.638,0,0,0,108.205,85.676ZM52.283,33H75.718v4.1H52.283ZM64,8.057c10.523,0,17.235,3.288,19.752,4.791L76.331,29.5H51.669l-7.424-16.66C46.746,11.336,53.411,8.057,64,8.057Zm19.471,109A63.458,63.458,0,0,1,64,119.943a63.453,63.453,0,0,1-19.471-2.885A31.132,31.132,0,0,1,23.291,85.841C24.639,57.31,47.8,42.514,51,40.6H77c3.2,1.9,26.361,16.649,27.711,45.239A31.131,31.131,0,0,1,83.471,117.058Z"/>
  </g>
</svg>
