<svg xmlns="http://www.w3.org/2000/svg" viewBox="0 0 48 48"><title>17-web security</title><g id="_17-web_security" data-name="17-web security"><path d="M45,40H3a3,3,0,0,1-3-3V11A3,3,0,0,1,3,8H6v2H3a1,1,0,0,0-1,1V37a1,1,0,0,0,1,1H45a1,1,0,0,0,1-1V11a1,1,0,0,0-1-1H42V8h3a3,3,0,0,1,3,3V37A3,3,0,0,1,45,40Z"/><rect x="15" y="39" width="2" height="4"/><path d="M13,47H11V45a3,3,0,0,1,3-3H24v2H14a1,1,0,0,0-1,1Z"/><rect x="31" y="39" width="2" height="4"/><path d="M37,47H35V45a1,1,0,0,0-1-1H29V42h5a3,3,0,0,1,3,3Z"/><rect x="9" y="46" width="30" height="2"/><path d="M40,36H8a3,3,0,0,1-3-3V3A3,3,0,0,1,8,0H40a3,3,0,0,1,3,3V33A3,3,0,0,1,40,36ZM8,2A1,1,0,0,0,7,3V33a1,1,0,0,0,1,1H40a1,1,0,0,0,1-1V3a1,1,0,0,0-1-1Z"/><rect x="6" y="6" width="36" height="2"/><rect x="9" y="3" width="2" height="2"/><rect x="13" y="3" width="2" height="2"/><rect x="17" y="3" width="2" height="2"/><rect x="1" y="30" width="5" height="2"/><rect x="42" y="30" width="5" height="2"/><path d="M30,32H18a3,3,0,0,1-3-3V23a3,3,0,0,1,3-3H30a3,3,0,0,1,3,3v6A3,3,0,0,1,30,32ZM18,22a1,1,0,0,0-1,1v6a1,1,0,0,0,1,1H30a1,1,0,0,0,1-1V23a1,1,0,0,0-1-1Z"/><path d="M29,22H19a1,1,0,0,1-1-1V16a6,6,0,0,1,12,0v5A1,1,0,0,1,29,22Zm-9-2h8V16a4,4,0,0,0-8,0Z"/><path d="M24,27a2,2,0,1,1,2-2A2,2,0,0,1,24,27Zm0-2h0Z"/><rect x="23" y="25" width="2" height="4"/><rect x="9" y="10" width="2" height="2"/><rect x="13" y="10" width="2" height="2"/><rect x="9" y="14" width="2" height="2"/><rect x="37" y="14" width="2" height="2"/><rect x="37" y="10" width="2" height="2"/><rect x="33" y="10" width="2" height="2"/></g></svg>